<svg width="201" height="70" viewBox="0 0 201 70" fill="none" xmlns="http://www.w3.org/2000/svg">
<path d="M191.525 5.77621C117.204 -4.24203 45.2574 0.809408 10.2409 5.70639C4.87005 6.45749 1 11.0013 1 16.3044V51.7933C1 57.031 4.79924 61.5474 10.0834 62.4177C80.0114 73.9345 154.825 67.9794 191.88 62.332C197.199 61.5214 201 57.0016 201 51.7401V16.4923C201 11.1065 196.984 6.512 191.525 5.77621Z" fill="url(#paint0_linear_104_14271)"/>
<path fill-rule="evenodd" clip-rule="evenodd" d="M191.224 6.29626C116.74 -3.7939 44.6326 1.29406 9.54276 6.22574C4.28318 6.96494 0.487273 11.4377 0.487273 16.6669V52.424C0.487273 57.5879 4.21379 62.0357 9.39078 62.8926C79.4634 74.4907 154.441 68.4936 191.576 62.8058C196.785 62.0081 200.513 57.5587 200.513 52.3704V16.8562C200.513 11.5468 196.573 7.02093 191.224 6.29626ZM9.47374 5.75192C44.5964 0.81563 116.751 -4.27561 191.29 5.8221C196.886 6.58011 201 11.3127 201 16.8562V52.3704C201 57.7845 197.107 62.4431 191.651 63.2788C154.485 68.9711 79.4518 74.9742 9.30982 63.3646C3.89143 62.4678 0 57.8147 0 52.424V16.6669C0 11.2097 3.96403 6.52628 9.47374 5.75192Z" fill="black"/>
<path fill-rule="evenodd" clip-rule="evenodd" d="M191 18.875C192.657 18.875 194 17.364 194 15.5C194 13.636 192.657 12.125 191 12.125C189.343 12.125 188 13.636 188 15.5C188 17.364 189.343 18.875 191 18.875ZM191 20C193.209 20 195 17.9853 195 15.5C195 13.0147 193.209 11 191 11C188.791 11 187 13.0147 187 15.5C187 17.9853 188.791 20 191 20Z" fill="#262525"/>
<path fill-rule="evenodd" clip-rule="evenodd" d="M10 56.125C11.6569 56.125 13 54.9497 13 53.5C13 52.0503 11.6569 50.875 10 50.875C8.34315 50.875 7 52.0503 7 53.5C7 54.9497 8.34315 56.125 10 56.125ZM10 57C12.2091 57 14 55.433 14 53.5C14 51.567 12.2091 50 10 50C7.79086 50 6 51.567 6 53.5C6 55.433 7.79086 57 10 57Z" fill="#262525"/>
<path d="M194 15C194 16.1046 192.881 17 191.5 17C190.119 17 189 16.1046 189 15C189 13.8954 190.119 13 191.5 13C192.881 13 194 13.8954 194 15Z" fill="#262525"/>
<path d="M12 54C12 55.1046 10.8807 56 9.5 56C8.11929 56 7 55.1046 7 54C7 52.8954 8.11929 52 9.5 52C10.8807 52 12 52.8954 12 54Z" fill="#262525"/>
<defs>
<linearGradient id="paint0_linear_104_14271" x1="101" y1="0" x2="101" y2="69" gradientUnits="userSpaceOnUse">
<stop stop-color="#0BB09F"/>
<stop offset="1" stop-color="#008678"/>
</linearGradient>
</defs>
</svg>
