<svg width="390" height="125" viewBox="0 0 390 125" fill="none" xmlns="http://www.w3.org/2000/svg">
<g opacity="0.5">
<path d="M4.85868 95.0996C-0.535454 114.163 81.7251 100.433 87.9774 98.7775C125.123 138.682 183.478 109.995 187.953 97.3063C193.224 104.417 200.274 121.519 231.106 122.07C253.97 122.499 273.278 105.581 273.769 105.214C280.573 108.279 287.438 111.221 294.732 112.753C311.221 116.186 320.967 112.508 334.269 104.907C345.915 119.005 379.935 121.457 388.088 98.9001C389.068 96.203 389.375 93.8124 389.252 91.7283C382.755 95.3448 376.012 98.3484 368.779 99.6356C355.845 101.904 349.041 94.3641 338.376 90.625C333.778 89.0312 329.365 89.4603 324.706 90.5637C321.335 91.3605 318.148 92.893 314.838 94.0576C307.298 96.6934 299.942 94.0576 292.771 90.5024C283.147 85.7825 278.611 82.2273 267.149 85.5986C250.537 90.5024 236.194 103.988 218.479 94.2415C208.365 88.7248 199.722 77.63 187.095 79.0398C182.559 79.5302 179.31 81.6756 175.571 84.0662C165.396 90.625 158.469 97.0612 146.026 98.9001C134.686 100.555 123.714 98.5936 113.722 93.0156C107.47 89.5216 102.198 84.9243 95.0266 83.3919C79.7023 80.1432 31.2777 105.214 28.6419 78.856C17.6085 80.3884 8.04613 84.2501 4.98128 95.0384L4.85868 95.0996Z" fill="#CCEEFF"/>
<path d="M359.584 75.6073C357.194 69.968 351.432 66.4127 344.996 65.0642C341.379 65.3094 338.131 66.3514 334.943 68.1903C333.411 69.0485 331.94 70.0906 330.53 71.0713C328.936 72.1747 327.158 74.4426 325.319 74.9943C322.806 75.6686 321.703 74.8104 321.396 73.1554C319.803 67.5774 312.57 62.7349 304.662 61.6316C301.536 62.7349 298.9 64.5125 296.387 66.7192C294.119 68.6807 292.158 71.5004 289.583 73.0328C286.825 74.7491 285.047 73.6458 284.434 71.5617C282.044 64.6964 277.324 55.7471 271.501 51.3337C267.149 48.0849 261.509 45.6331 255.441 44.2232C252.989 44.3458 250.476 44.4071 248.514 45.0814C241.71 47.5333 237.297 52.1918 232.393 57.0956C228.409 61.0799 224.915 65.3707 218.785 65.7385C215.475 65.9224 212.594 65.6159 209.713 63.6544C209.713 63.6544 209.713 63.6544 209.713 63.777C203.89 62.3059 197.944 61.0186 191.876 60.1605C194.021 48.8818 192.795 36.6837 186.788 24.9147C175.939 3.58331 157.979 -2.42378 139.957 0.824958C134.134 4.62537 128.985 9.16135 125.43 15.4749C121.997 21.6046 121.262 29.3281 116.235 34.5996C110.964 40.1163 106.367 39.6873 99.7465 37.787C95.0879 36.4385 89.2034 32.209 83.8706 34.4157C82.2768 35.09 80.867 36.4998 79.5185 37.9709C75.5342 45.9395 75.4116 54.705 75.4116 60.7734C75.4116 70.6422 71.9176 76.0364 58.4323 77.201C49.6668 77.9979 38.5721 77.4462 28.642 78.856C31.2777 105.214 79.7024 80.082 95.0266 83.392C102.198 84.9244 107.47 89.5217 113.722 93.0157C123.714 98.5937 134.686 100.494 146.026 98.9002C158.469 97.1226 165.334 90.6863 175.571 84.0663C179.31 81.6757 182.559 79.5303 187.095 79.0399C199.722 77.6301 208.365 88.7248 218.479 94.2416C236.194 103.927 250.537 90.5025 267.149 85.5987C278.611 82.2274 283.147 85.7213 292.771 90.5025C300.004 94.0577 307.298 96.6322 314.838 94.0577C318.086 92.893 321.335 91.3606 324.706 90.5638C329.365 89.4604 333.778 89.0313 338.376 90.6251C349.103 94.3642 355.845 101.842 368.779 99.6357C376.012 98.4098 382.816 95.3449 389.252 91.7284C388.271 77.7527 365.408 76.2203 359.584 75.6073Z" fill="white"/>
<path d="M83.8092 34.477C89.1421 32.2703 95.0266 36.4998 99.6852 37.8483C106.305 39.7485 110.903 40.1776 116.174 34.6609C121.2 29.3894 121.936 21.6659 125.369 15.5362C128.924 9.16133 134.073 4.68664 139.896 0.88623C126.411 3.27681 112.925 10.8164 102.26 21.1142C89.6938 24.4856 83.0124 30.9831 79.4572 38.0935C80.8057 36.5611 82.2155 35.2126 83.8092 34.5383V34.477Z" fill="#CCEEFF"/>
<path d="M218.724 65.7999C224.854 65.4934 228.348 61.1413 232.332 57.157C237.236 52.2532 241.649 47.5947 248.453 45.1428C250.415 44.4685 252.928 44.4072 255.38 44.2846C239.013 40.6068 219.092 44.9589 209.652 63.6545C212.533 65.616 215.353 65.9225 218.724 65.7386V65.7999Z" fill="#CCEEFF"/>
<path d="M289.583 73.0327C292.158 71.5003 294.119 68.6806 296.387 66.7191C298.9 64.5124 301.536 62.7348 304.662 61.6315C297.123 60.5894 288.97 62.98 284.434 71.5616C285.047 73.5844 286.764 74.6877 289.583 73.0327Z" fill="#CCEEFF"/>
<path d="M325.319 74.9943C327.158 74.5039 328.936 72.1746 330.53 71.0713C331.94 70.0905 333.472 69.0485 334.943 68.1903C338.131 66.3514 341.379 65.3093 344.996 65.0642C336.169 63.2252 326.116 65.7384 321.458 73.2167C321.458 73.2167 321.458 73.2167 321.458 73.1554C321.703 74.8104 322.868 75.6685 325.381 74.9943H325.319Z" fill="#CCEEFF"/>
<path d="M291.851 109.934C287.99 108.891 283.515 103.681 277.447 102.946C270.213 102.087 252.376 111.159 244.407 115.879C243.12 116.37 241.833 116.799 240.484 117.228C233.006 119.68 225.099 122.193 217.498 119.618C200.396 113.795 196.841 91.7283 187.708 94.2415C178.084 96.8772 161.963 110.117 160.798 110.608C145.535 116.983 128.924 118.944 114.519 112.692C108.267 107.849 101.708 103.375 95.9461 98.0419C89.326 91.9122 71.5499 97.4902 60.8842 99.1452C51.8123 100.555 42.6177 102.823 33.3619 102.823C31.5842 102.823 23.7382 100.739 19.57 98.7161C9.21084 93.7511 16.3213 84.3114 17.6698 81.4917C6.32988 85.3534 0.322778 92.3413 0.0162932 96.0804C-0.351489 100.003 5.59432 106.194 9.02695 106.991C15.9535 108.585 21.3476 109.014 31.0326 107.604C49.4217 104.907 72.1016 106.072 75.6568 106.256C82.8285 107.849 89.0808 107.236 96.1913 111.711C101.402 115.021 112.251 121.212 127.391 123.664C143.329 126.239 163.802 115.634 176.552 110.24C179.555 108.953 189.301 108.278 193.715 111.098C215.537 125.074 226.877 126.239 241.281 122.499C255.502 118.883 270.459 112.018 283.883 117.044C307.666 125.993 333.533 109.75 353.087 114.96C342.728 101.781 331.02 101.413 320.354 105.275C314.838 107.298 298.778 111.772 291.79 109.872L291.851 109.934Z" fill="#ABE0F4"/>
</g>
</svg>
