<svg width="281" height="117" viewBox="0 0 281 117" fill="none" xmlns="http://www.w3.org/2000/svg">
<g opacity="0.5">
<path d="M45.9204 78.681C55.5441 78.2519 63.8804 74.5128 73.5654 76.2904C81.7792 77.8228 89.0735 82.2975 96.4292 86.1592C111.14 93.8826 123.768 93.9439 139.337 89.3467C158.768 83.646 177.525 79.6004 197.569 85.1785C204.251 87.0174 210.442 90.2048 217.123 91.9824C226.379 94.4343 229.934 93.2697 240.416 90.6339C244.523 89.5918 246.607 88.4885 250.775 88.1207C252.675 88.1207 254.514 88.3046 256.353 88.5498C265.119 91.7373 271.555 88.795 275.723 79.7843C275.11 79.4166 274.497 79.1101 273.761 78.8649C275.355 73.4094 270.758 68.9347 265.057 69.7316C263.831 69.9155 262.728 70.0994 261.625 70.2833C251.081 62.4986 240.906 61.2726 231.405 64.0923C229.015 64.2762 226.501 65.1956 223.866 66.9119C224.295 60.7822 222.395 54.7138 216.939 49.381C211.422 43.9869 205.047 42.5158 199.347 43.8643C196.772 40.0639 192.727 37.612 187.394 37.6733C179.303 16.8936 167.534 -6.15408 148.041 2.73398C142.341 9.35406 137.376 14.9321 137.13 24.8622C136.946 33.5051 141.053 39.6348 143.138 47.6034C145.835 58.2691 136.272 57.227 131.859 56.1237C131.859 56.2463 131.859 56.4302 131.859 56.4915C127.813 55.9398 123.829 55.3881 119.783 54.7752C119.477 29.2756 110.957 20.7553 98.1455 25.7204C98.2681 26.8237 98.0229 27.8045 97.7164 28.9078C96.8582 31.7275 96.0001 33.8116 96.184 36.8764C96.4905 41.9641 98.3907 47.0517 96.184 52.0168C93.1191 58.7594 86.499 57.9626 81.4727 54.4073C75.4043 54.5912 69.5198 55.572 63.8805 57.5335C61.3673 52.9362 53.0309 45.5193 42.4878 49.0132C36.1129 51.0973 30.4123 53.7944 25.202 57.0431C26.428 68.6895 31.5156 79.3552 45.9817 78.7423L45.9204 78.681Z" fill="white"/>
<path d="M1.11231 84.6266C-4.09794 96.1505 14.046 110.188 25.8763 104.303C27.6539 103.445 29.3089 102.525 30.9639 101.545C32.4351 100.686 37.1549 100.993 38.3196 101.79C41.8748 104.18 46.5334 104.793 51.192 102.035C53.6439 100.564 61.1221 99.2766 63.0223 99.154C75.7108 98.0507 81.5953 105.345 83.5568 107.307C88.9509 112.517 98.1455 114.785 107.463 113.007C110.527 112.394 121.438 113.007 124.442 114.172C142.157 120.669 163.611 87.5076 188.129 101.422C194.32 104.916 204.496 106.203 212.097 105.529C222.824 104.487 222.64 116.072 235.267 116.011C245.442 116.011 252.185 112.578 256.843 105.897C260.889 100.135 266.406 99.767 269.716 100.012C280.688 100.932 283.937 84.9331 275.784 79.8455C271.677 88.8561 265.18 91.7371 256.414 88.6109C254.575 88.3657 252.675 88.1819 250.836 88.1819C246.607 88.5496 244.584 89.653 240.477 90.6951C230.057 93.3308 226.44 94.4955 217.184 92.0436C210.503 90.266 204.251 87.0785 197.631 85.2396C177.586 79.6616 158.83 83.6459 139.398 89.4078C123.89 94.0051 111.263 93.9438 96.4905 86.2204C89.1961 82.4199 81.9018 77.884 73.6267 76.3515C63.9417 74.5739 55.544 78.313 45.9817 78.7421C31.5156 79.3551 26.428 68.6894 25.202 57.043C14.7815 63.5405 6.62904 72.4898 1.11231 84.6879V84.6266Z" fill="#CCEEFF"/>
<path d="M143.137 47.6646C141.115 39.696 136.946 33.6276 137.13 24.9234C137.375 15.0546 142.279 9.47654 148.041 2.79517C146.938 3.28554 145.834 3.83722 144.731 4.57278C129.407 14.0125 131.552 51.6489 131.859 56.1236C136.272 57.2269 145.834 58.269 143.137 47.6033V47.6646Z" fill="#CCEEFF"/>
<path d="M96.1839 52.0169C98.4519 47.0518 96.4904 42.0255 96.1839 36.8765C96 33.8117 96.8582 31.7889 97.7164 28.9079C98.0228 27.8046 98.268 26.8238 98.1454 25.7205C97.1034 26.1495 96.0614 26.5786 94.958 27.1916C86.3764 31.7889 80.7984 45.4581 81.7791 54.2849C81.6566 54.2849 81.534 54.2849 81.4114 54.2849C86.4377 57.8401 93.0578 58.637 96.1226 51.8943L96.1839 52.0169Z" fill="#CCEEFF"/>
</g>
</svg>
