<svg width="471" height="152" viewBox="0 0 471 152" fill="none" xmlns="http://www.w3.org/2000/svg">
<g opacity="0.5">
<path d="M5.90272 116.313C-0.717357 139.605 99.9936 122.81 107.594 120.787C153.016 169.641 224.427 134.518 229.882 119.01C236.38 127.714 244.961 148.616 282.659 149.29C310.61 149.781 334.271 129.124 334.823 128.695C343.159 132.495 351.557 136.05 360.445 137.95C380.611 142.18 392.564 137.705 408.808 128.388C423.09 145.674 464.711 148.616 474.641 121.032C475.806 117.722 476.235 114.841 476.051 112.267C468.143 116.68 459.807 120.358 450.98 121.891C435.104 124.649 426.829 115.454 413.773 110.918C408.134 108.957 402.74 109.509 397.039 110.857C392.932 111.838 389.009 113.738 385.025 115.087C375.769 118.274 366.82 115.087 357.993 110.735C346.162 104.973 340.646 100.621 326.609 104.789C306.319 110.796 288.727 127.285 267.089 115.393C254.707 108.589 244.103 95.0425 228.656 96.7589C223.139 97.3718 219.094 100.008 214.558 102.95C202.053 110.98 193.655 118.887 178.454 121.032C164.601 123.055 151.177 120.665 138.978 113.861C131.316 109.57 124.819 103.931 116.115 102.092C97.4192 98.1074 38.145 128.817 34.8963 96.575C21.3496 98.4752 9.7032 103.195 5.96408 116.374L5.90272 116.313Z" fill="#CCEEFF"/>
<path d="M439.885 92.4679C436.943 85.6027 429.955 81.1893 422.048 79.5343C417.635 79.7795 413.65 81.128 409.789 83.3347C407.95 84.3767 406.111 85.664 404.395 86.8899C402.494 88.2385 400.288 91.0581 398.02 91.6711C394.955 92.5292 393.606 91.4259 393.238 89.4644C391.277 82.6604 382.45 76.7146 372.826 75.3661C369.026 76.7146 365.777 78.86 362.713 81.6184C359.954 84.009 357.502 87.4416 354.376 89.3418C350.944 91.4259 348.798 90.0774 348.124 87.5642C348.124 87.5642 348.124 87.5642 348.124 87.6255C345.243 79.1665 339.42 68.2556 332.248 62.9228C326.915 58.9385 320.05 55.9349 312.572 54.2186C309.629 54.4025 306.503 54.4025 304.113 55.2607C295.776 58.2642 290.382 63.9648 284.375 69.9719C279.532 74.8144 275.242 80.1472 267.702 80.515C263.657 80.6989 260.163 80.3311 256.607 77.9406C256.607 77.9406 256.607 78.0018 256.546 78.0631C249.374 76.2242 242.141 74.7531 234.724 73.6498C237.36 59.8579 235.828 44.9628 228.472 30.4967C215.232 4.38415 193.226 -2.97149 171.159 1.01282C164.049 5.67139 157.735 11.1881 153.383 18.9728C149.154 26.4511 148.296 35.8908 142.166 42.327C135.73 49.0697 130.09 48.5793 121.999 46.25C116.299 44.6563 109.065 39.3848 102.568 42.1431C100.668 42.94 98.8902 44.6563 97.2352 46.4952C92.3314 56.2414 92.1476 66.9684 92.1476 74.3853C92.1476 86.3995 87.8567 93.0196 71.3678 94.4907C60.6409 95.4715 47.033 94.7972 34.8962 96.5135C38.145 128.756 97.4192 98.046 116.115 102.03C124.88 103.93 131.316 109.57 138.978 113.799C151.238 120.603 164.662 122.994 178.454 120.971C193.655 118.764 202.114 110.918 214.558 102.888C219.094 99.9462 223.139 97.3104 228.656 96.6974C244.164 94.9811 254.707 108.528 267.089 115.332C288.727 127.223 306.319 110.734 326.609 104.727C340.646 100.559 346.162 104.911 357.993 110.673C366.819 115.025 375.769 118.213 385.025 115.025C389.009 113.615 392.932 111.776 397.039 110.796C402.739 109.447 408.134 108.896 413.773 110.857C426.829 115.393 435.166 124.588 450.98 121.829C459.807 120.297 468.143 116.558 476.051 112.206C474.825 95.1037 446.873 93.2035 439.763 92.4679H439.885Z" fill="white"/>
<path d="M102.445 42.1432C108.943 39.3849 116.176 44.6564 121.876 46.2501C129.968 48.5794 135.607 49.0698 142.043 42.3271C148.173 35.8909 149.031 26.4512 153.261 18.973C157.613 11.1882 163.926 5.67151 171.037 1.01294C154.548 3.9552 137.998 13.211 125.003 25.7769C109.617 29.8838 101.465 37.7911 97.1125 46.5566C98.7676 44.7177 100.484 43.0014 102.445 42.2045V42.1432Z" fill="#CCEEFF"/>
<path d="M267.58 80.5151C275.119 80.1473 279.41 74.8145 284.253 69.972C290.26 63.9649 295.715 58.2643 303.99 55.2607C306.381 54.4026 309.446 54.4026 312.449 54.2187C292.466 49.744 268.07 55.0155 256.546 77.9406C260.04 80.3312 263.534 80.699 267.641 80.5151H267.58Z" fill="#CCEEFF"/>
<path d="M354.254 89.2806C357.38 87.3804 359.832 83.9478 362.59 81.5572C365.655 78.8601 368.904 76.7147 372.704 75.3049C363.448 74.0176 353.457 76.9599 347.94 87.503C348.676 90.0162 350.821 91.3647 354.192 89.2806H354.254Z" fill="#CCEEFF"/>
<path d="M397.958 91.7323C400.226 91.1193 402.433 88.2996 404.333 86.9511C406.111 85.7252 407.889 84.4992 409.728 83.3959C413.589 81.1892 417.574 79.8407 421.987 79.5955C411.199 77.3888 398.878 80.3923 393.177 89.5869C393.177 89.5869 393.177 89.5256 393.177 89.4643C393.484 91.4871 394.894 92.5291 397.958 91.671V91.7323Z" fill="#CCEEFF"/>
<path d="M357.073 134.456C352.353 133.169 346.837 126.794 339.42 125.936C330.593 124.894 308.771 135.989 299.025 141.751C297.431 142.302 295.838 142.854 294.244 143.406C285.049 146.409 275.364 149.474 266.17 146.287C245.206 139.115 240.915 112.206 229.698 115.27C217.929 118.519 198.253 134.702 196.72 135.315C178.025 143.099 157.735 145.551 140.143 137.889C132.481 132.004 124.451 126.549 117.402 119.929C109.249 112.389 87.5503 119.255 74.4941 121.278C63.3993 122.994 52.1818 125.752 40.8419 125.752C38.6352 125.752 29.0729 123.178 23.9852 120.726C11.2967 114.596 20.0011 103.134 21.6561 99.6396C7.80297 104.36 0.447342 112.941 0.0182628 117.538C-0.410816 122.381 6.82216 129.92 11.0516 130.901C19.5719 132.863 26.1307 133.353 38.0223 131.637C60.5183 128.327 88.2859 129.798 92.6379 129.982C101.403 131.943 109.066 131.146 117.77 136.663C124.145 140.709 137.385 148.248 155.896 151.252C175.389 154.378 200.398 141.444 216.029 134.763C219.707 133.23 231.598 132.372 236.992 135.805C263.718 152.907 277.51 154.317 295.224 149.781C312.633 145.306 330.899 136.908 347.327 143.099C376.443 154.071 408.072 134.211 431.978 140.525C419.29 124.404 405.008 123.975 391.951 128.694C385.209 131.146 365.594 136.663 357.012 134.334L357.073 134.456Z" fill="#ABE0F4"/>
</g>
</svg>
