<svg width="50" height="58" viewBox="0 0 50 58" fill="none" xmlns="http://www.w3.org/2000/svg">
<path fill-rule="evenodd" clip-rule="evenodd" d="M5.75124 0.896484H43.3572C44.1144 0.898421 44.8638 1.04948 45.5626 1.34104C46.2614 1.6326 46.896 2.05895 47.43 2.59574C47.9641 3.13253 48.3872 3.76926 48.6751 4.46957C48.9631 5.16987 49.1103 5.92004 49.1084 6.67724V57.0203L43.0706 51.6856L39.6766 48.5427L36.0818 45.2018L37.5735 50.3977H5.75124C2.58172 50.3977 1.89659e-05 47.816 1.89659e-05 44.617V6.67724C-0.00192307 5.92004 0.145296 5.16987 0.433272 4.46957C0.721247 3.76926 1.14434 3.13253 1.67839 2.59574C2.21244 2.05895 2.84699 1.6326 3.54581 1.34104C4.24463 1.04948 4.99404 0.898421 5.75124 0.896484ZM30.6732 35.2679C31.5121 36.3402 32.5223 37.5454 32.5223 37.5454C38.6204 37.3508 41.0274 33.4167 41.1072 33.2862C41.1086 33.284 41.1093 33.2829 41.1093 33.2829C41.1093 24.247 37.0684 16.9243 37.0684 16.9243C33.0304 13.8906 29.1844 13.9763 29.1844 13.9763L28.7916 14.4253C33.5621 15.8845 35.7805 17.9877 35.7805 17.9877C31.4801 15.6188 26.5324 14.6941 21.6668 15.3499C21.5284 15.3499 21.408 15.3698 21.276 15.3917C21.2474 15.3964 21.2183 15.4012 21.1883 15.406C20.2046 15.4916 17.8208 15.8579 14.8197 17.1754C13.7829 17.6509 13.1625 17.9877 13.1625 17.9877C13.1625 17.9877 15.4932 15.7723 20.5443 14.3101L20.2637 13.9733C20.2637 13.9733 16.4207 13.8877 12.3798 16.9213C12.3798 16.9213 8.33884 24.244 8.33884 33.2799C8.33884 33.2799 10.6931 37.3475 16.8933 37.5454C16.8933 37.5454 17.9331 36.2781 18.7749 35.2147C15.2096 34.1484 13.8626 31.9034 13.8626 31.9034C13.8626 31.9034 14.1432 32.0984 14.6483 32.3761C14.68 32.4134 14.7193 32.4436 14.7635 32.4647C14.8023 32.4909 14.841 32.5101 14.88 32.5294C14.9243 32.5513 14.9691 32.5735 15.0146 32.6065C15.6737 32.9704 16.3578 33.2873 17.0617 33.5547C18.3963 34.0836 19.7766 34.489 21.1853 34.7658C24.9977 35.4978 28.9413 35.0888 32.5223 33.5901C33.506 33.2238 34.5989 32.6862 35.7509 31.93C35.7509 31.93 34.3478 34.2281 30.6732 35.2679ZM16.6127 27.5587C16.6127 25.8455 17.874 24.4424 19.475 24.4424C21.0731 24.4424 22.3669 25.8425 22.3344 27.5587C22.3344 29.2661 21.0731 30.6751 19.475 30.6751C17.9035 30.6751 16.6127 29.2661 16.6127 27.5587ZM26.8568 27.5587C26.8568 25.8455 28.1181 24.4424 29.7191 24.4424C31.3171 24.4424 32.5755 25.8425 32.5785 27.5587C32.5785 29.2661 31.3171 30.6751 29.7191 30.6751C28.1476 30.6751 26.8568 29.2661 26.8568 27.5587Z" fill="#0A1825"/>
</svg>
