<svg width="33" height="34" viewBox="0 0 33 34" fill="none" xmlns="http://www.w3.org/2000/svg">
<path fill-rule="evenodd" clip-rule="evenodd" d="M3.86473 0.896484H29.1353C29.6441 0.897623 30.1477 0.986445 30.6173 1.15788C31.0869 1.32931 31.5133 1.58 31.8722 1.89562C32.231 2.21125 32.5153 2.58564 32.7089 2.9974C32.9024 3.40917 33.0013 3.85026 33 4.29548V33.8965L28.9427 30.7598L26.662 28.9117L24.2463 26.9474L25.2487 30.0025H3.86473C1.73487 30.0025 1.27447e-05 28.4845 1.27447e-05 26.6035V4.29548C-0.00129227 3.85026 0.0976366 3.40917 0.291151 2.9974C0.484665 2.58564 0.768975 2.21125 1.12785 1.89562C1.48672 1.58 1.91313 1.32931 2.38272 1.15788C2.85232 0.986445 3.35591 0.897623 3.86473 0.896484ZM20.6118 21.1064C21.1756 21.7369 21.8544 22.4455 21.8544 22.4455C25.9522 22.3311 27.5697 20.0179 27.6233 19.9412C27.6243 19.9399 27.6247 19.9392 27.6247 19.9392C27.6247 14.6262 24.9093 10.3206 24.9093 10.3206C22.1958 8.53685 19.6114 8.58722 19.6114 8.58722L19.3474 8.85122C22.5531 9.70922 24.0438 10.9459 24.0438 10.9459C21.1541 9.55302 17.8293 9.00931 14.5597 9.39485C14.4667 9.39485 14.3858 9.40658 14.2971 9.41944C14.2779 9.42223 14.2583 9.42507 14.2381 9.42785C13.5771 9.47822 11.9753 9.69359 9.95856 10.4682C9.26184 10.7479 8.845 10.9459 8.845 10.9459C8.845 10.9459 10.4111 9.64322 13.8054 8.78348L13.6168 8.58548C13.6168 8.58548 11.0344 8.53512 8.31898 10.3189C8.31898 10.3189 5.60356 14.6245 5.60356 19.9375C5.60356 19.9375 7.18557 22.3291 11.352 22.4455C11.352 22.4455 12.0507 21.7004 12.6164 21.0751C10.2206 20.4481 9.31543 19.1281 9.31543 19.1281C9.31543 19.1281 9.50401 19.2427 9.84343 19.406C9.86473 19.428 9.89111 19.4457 9.92085 19.4581C9.94686 19.4736 9.97287 19.4848 9.99908 19.4962C10.0289 19.5091 10.0589 19.5221 10.0896 19.5415C10.5325 19.7555 10.9922 19.9418 11.4651 20.099C12.362 20.41 13.2895 20.6484 14.2362 20.8111C16.798 21.2415 19.448 21.0011 21.8544 20.1199C22.5154 19.9045 23.2499 19.5884 24.024 19.1437C24.024 19.1437 23.0811 20.495 20.6118 21.1064ZM11.1634 16.5735C11.1634 15.5661 12.011 14.7411 13.0869 14.7411C14.1607 14.7411 15.0301 15.5644 15.0083 16.5735C15.0083 17.5774 14.1607 18.4059 13.0869 18.4059C12.0309 18.4059 11.1634 17.5774 11.1634 16.5735ZM18.0473 16.5735C18.0473 15.5661 18.8949 14.7411 19.9707 14.7411C21.0446 14.7411 21.8902 15.5644 21.8922 16.5735C21.8922 17.5774 21.0446 18.4059 19.9707 18.4059C18.9147 18.4059 18.0473 17.5774 18.0473 16.5735Z" fill="#0A1825"/>
</svg>
