<svg width="33" height="33" viewBox="0 0 33 33" fill="none" xmlns="http://www.w3.org/2000/svg">
<path d="M0.329712 16.9379C0.331564 24.8169 6.02594 31.5256 13.76 32.7604V21.5666H9.72155V16.9379H13.7648V13.4143C13.5841 11.7446 14.1509 10.0806 15.3115 8.87352C16.4721 7.66643 18.1063 7.04138 19.7708 7.16789C20.9655 7.1873 22.1573 7.29436 23.3365 7.48822V11.4266H21.3244C20.6318 11.3354 19.9353 11.5655 19.4314 12.0523C18.9274 12.5392 18.6705 13.2299 18.7329 13.93V16.9379H23.1439L22.4387 21.5682H18.7329V32.7604C27.0972 31.4304 32.9625 23.7445 32.0797 15.2707C31.1969 6.7969 23.875 0.501764 15.4185 0.945816C6.96188 1.38987 0.331056 8.41766 0.329712 16.9379Z" fill="#0A1825"/>
</svg>
