<svg width="1043" height="258" viewBox="0 0 1043 258" fill="none" xmlns="http://www.w3.org/2000/svg">
<path d="M1015.11 147.8C1000.5 136.201 978.895 117.722 962.292 109.818C954.56 106.179 926.358 71.2678 921.07 67.6288C898.326 51.9357 849.996 99.4698 828.958 114.31C797.401 136.542 721.267 179.698 680.783 176.514C604.82 170.544 453.006 112.434 395.863 92.9879C357.71 79.9672 269.351 46.0224 254.056 37.6641C228.242 23.6199 183.039 1.27429 167.346 0.0802472C138.405 -2.13726 71.311 42.2128 50.5575 57.5648C8.8798 88.5529 -9.94052 107.316 5.18399 156.329C24.7435 219.613 95.8173 249.35 156.145 255.719C198.107 260.154 240.296 253.842 281.803 247.929C334.341 240.423 384.661 236.728 437.654 240.651C534.712 247.758 631.941 250.317 729.17 253.899C831.915 257.709 937.104 264.191 1035.19 227.46C1039.05 226.038 1042.29 222.74 1042.18 218.305C1041.1 186.066 1040.81 168.156 1015.23 147.8H1015.11Z" fill="url(#paint0_linear_18_1144)"/>
<defs>
<linearGradient id="paint0_linear_18_1144" x1="521.009" y1="0.0233882" x2="521.009" y2="257.254" gradientUnits="userSpaceOnUse">
<stop offset="0.02" stop-color="#51ADA8"/>
<stop offset="0.29" stop-color="#48A6A0"/>
<stop offset="0.74" stop-color="#30938D"/>
<stop offset="0.98" stop-color="#218780"/>
</linearGradient>
</defs>
</svg>
