<svg width="313" height="352" viewBox="0 0 313 352" fill="none" xmlns="http://www.w3.org/2000/svg">
<path d="M303.331 90.2223C313.316 83.5038 316.058 69.8544 308.154 60.7799C289.011 38.8044 264.609 21.8561 237.08 11.6156C202.713 -1.16818 165.204 -2.85513 129.829 6.7921C94.4535 16.4393 62.9934 36.9351 39.8749 65.3957C16.7564 93.8562 3.14318 128.849 0.950563 165.45C-1.24205 202.052 8.09639 238.419 27.6519 269.436C47.2074 300.453 75.9957 324.558 109.966 338.36C143.937 352.161 181.379 354.964 217.026 346.374C245.581 339.494 271.832 325.58 293.461 306.047C302.392 297.981 301.299 284.101 292.188 276.239C283.077 268.377 269.414 269.558 260.158 277.25C244.732 290.071 226.503 299.263 206.817 304.007C180.031 310.461 151.896 308.355 126.37 297.984C100.844 287.614 79.2114 269.501 64.5169 246.194C49.8225 222.887 42.8054 195.559 44.453 168.056C46.1005 140.553 56.3298 114.259 73.7016 92.8731C91.0733 71.4872 114.713 56.0862 141.295 48.8371C167.876 41.5879 196.062 42.8555 221.886 52.4615C240.865 59.5215 257.866 70.8243 271.651 85.3946C279.922 94.1364 293.347 96.9409 303.331 90.2223Z" fill="#0BB09F"/>
</svg>
