<svg width="350" height="551" viewBox="0 0 350 551" fill="none" xmlns="http://www.w3.org/2000/svg">
<rect x="159" y="426.517" width="32" height="124" rx="16" fill="white"/>
<rect x="159" y="0.516846" width="32" height="124" rx="16" fill="white"/>
<path d="M59.9638 373.652C50.9683 381.6 50.019 395.448 58.9949 403.417C80.7923 422.771 107.155 436.445 135.748 443.045C171.416 451.278 208.76 448.089 242.526 433.926C276.291 419.763 304.78 395.339 323.982 364.091C343.184 332.844 352.133 296.345 349.571 259.73C347.008 223.115 333.063 188.227 309.697 159.976C286.331 131.724 254.72 111.531 219.313 102.236C183.905 92.9422 146.483 95.0151 112.312 108.163C84.9139 118.706 60.7117 135.942 41.8224 158.164C34.0501 167.307 36.9236 180.884 46.9394 187.495C56.9923 194.13 70.4055 191.185 78.5837 182.342C92.19 167.629 109.035 156.151 127.895 148.894C153.572 139.014 181.692 137.456 208.297 144.44C234.903 151.424 258.656 166.598 276.214 187.827C293.772 209.056 304.251 235.271 306.176 262.784C308.102 290.297 301.377 317.723 286.948 341.204C272.519 364.684 251.113 383.036 225.74 393.679C200.368 404.321 172.307 406.718 145.505 400.531C125.827 395.989 107.554 386.988 92.0357 374.332C82.6961 366.716 68.9953 365.673 59.9638 373.652Z" fill="white"/>
</svg>
