<svg width="33" height="28" viewBox="0 0 33 28" fill="none" xmlns="http://www.w3.org/2000/svg">
<path d="M28.7806 4.57302C30.1449 3.71951 31.1658 2.37556 31.6525 0.792102C30.3705 1.5881 28.9678 2.14883 27.5051 2.45003C25.4772 0.20526 22.2642 -0.341016 19.6615 1.11645C17.0587 2.57392 15.7106 5.67431 16.3703 8.6852C11.1189 8.40931 6.22631 5.81354 2.90997 1.54383C1.17924 4.66765 2.06368 8.66096 4.93116 10.6696C3.89425 10.6347 2.88033 10.341 1.97395 9.81278C1.97395 9.84145 1.97395 9.87012 1.97395 9.89878C1.97455 13.1528 4.16617 15.9557 7.21412 16.6006C6.25233 16.8744 5.24348 16.9147 4.26453 16.7184C5.12171 19.5012 7.57263 21.4076 10.3661 21.4645C8.05248 23.3647 5.19518 24.3952 2.254 24.3902C1.73268 24.391 1.21176 24.3596 0.69397 24.2962C3.68068 26.3046 7.15685 27.3706 10.7071 27.3668C15.6463 27.4023 20.393 25.3647 23.8855 21.7098C27.3779 18.0549 29.3247 13.0876 29.2904 7.91914C29.2904 7.62291 29.2838 7.32827 29.2706 7.03523C30.5498 6.06787 31.6538 4.86948 32.5307 3.4964C31.339 4.04914 30.075 4.41204 28.7806 4.57302Z" fill="#0A1825"/>
</svg>
